<mxfile>
    <diagram id="2F_aiJTMggvmN3Yw2MRI" name="SUPS">
        <mxGraphModel dx="1175" dy="798" grid="1" gridSize="10" guides="1" tooltips="1" connect="1" arrows="1" fold="1" page="1" pageScale="1" pageWidth="827" pageHeight="1169" math="0" shadow="0">
            <root>
                <mxCell id="_efD95wMPsB2O2z41Fvz-0"/>
                <mxCell id="_efD95wMPsB2O2z41Fvz-1" parent="_efD95wMPsB2O2z41Fvz-0"/>
                <mxCell id="z3dL2ds6BLRVIv2V2_wC-0" style="edgeStyle=orthogonalEdgeStyle;rounded=0;orthogonalLoop=1;jettySize=auto;html=1;exitX=1;exitY=0.25;exitDx=0;exitDy=0;fillColor=#d5e8d4;strokeColor=#82b366;strokeWidth=2;fontColor=#000000;" parent="_efD95wMPsB2O2z41Fvz-1" source="uqcg_Q9YzmaS4_aYhOSX-0" target="yLg-UuwUKUpA1XqLInHx-11" edge="1">
                    <mxGeometry relative="1" as="geometry"/>
                </mxCell>
                <mxCell id="uqcg_Q9YzmaS4_aYhOSX-0" value="Client Program" style="rounded=0;whiteSpace=wrap;html=1;fillColor=#dae8fc;strokeColor=#6c8ebf;fontColor=#000000;" parent="_efD95wMPsB2O2z41Fvz-1" vertex="1">
                    <mxGeometry x="60" y="520" width="250" height="220" as="geometry"/>
                </mxCell>
                <mxCell id="z3dL2ds6BLRVIv2V2_wC-2" style="edgeStyle=orthogonalEdgeStyle;rounded=0;orthogonalLoop=1;jettySize=auto;html=1;exitX=0;exitY=0.75;exitDx=0;exitDy=0;fillColor=#e1d5e7;strokeColor=#9673a6;strokeWidth=2;fontColor=#000000;" parent="_efD95wMPsB2O2z41Fvz-1" source="uqcg_Q9YzmaS4_aYhOSX-1" target="yLg-UuwUKUpA1XqLInHx-5" edge="1">
                    <mxGeometry relative="1" as="geometry"/>
                </mxCell>
                <mxCell id="uqcg_Q9YzmaS4_aYhOSX-1" value="Server Program&lt;br&gt;(could be on another device via the network)" style="rounded=0;whiteSpace=wrap;html=1;fillColor=#dae8fc;strokeColor=#6c8ebf;fontColor=#000000;" parent="_efD95wMPsB2O2z41Fvz-1" vertex="1">
                    <mxGeometry x="879" y="530" width="250" height="220" as="geometry"/>
                </mxCell>
                <mxCell id="z3dL2ds6BLRVIv2V2_wC-1" style="edgeStyle=orthogonalEdgeStyle;rounded=0;orthogonalLoop=1;jettySize=auto;html=1;entryX=0;entryY=0.25;entryDx=0;entryDy=0;fillColor=#d5e8d4;strokeColor=#82b366;strokeWidth=2;fontColor=#000000;" parent="_efD95wMPsB2O2z41Fvz-1" source="yLg-UuwUKUpA1XqLInHx-11" target="uqcg_Q9YzmaS4_aYhOSX-1" edge="1">
                    <mxGeometry relative="1" as="geometry"/>
                </mxCell>
                <mxCell id="z3dL2ds6BLRVIv2V2_wC-3" style="edgeStyle=orthogonalEdgeStyle;rounded=0;orthogonalLoop=1;jettySize=auto;html=1;entryX=1;entryY=0.75;entryDx=0;entryDy=0;fillColor=#e1d5e7;strokeColor=#9673a6;strokeWidth=2;fontColor=#000000;" parent="_efD95wMPsB2O2z41Fvz-1" source="yLg-UuwUKUpA1XqLInHx-10" target="uqcg_Q9YzmaS4_aYhOSX-0" edge="1">
                    <mxGeometry relative="1" as="geometry"/>
                </mxCell>
                <mxCell id="xXfUcW9ZO_o8chDghMku-0" value="&lt;div style=&quot;text-align: justify&quot;&gt;&lt;b style=&quot;font-size: 24px&quot;&gt;Scalable Universal Protocol System&lt;/b&gt;&lt;/div&gt;&lt;div style=&quot;text-align: justify&quot;&gt;&lt;br&gt;&lt;/div&gt;&lt;div style=&quot;text-align: justify&quot;&gt;&lt;span&gt;SUPS est un protocole de protocoles : il permet de facilement créer de nouveaux protocoles informatiques libres, évolutifs et compatibles avec d'autres. Tous les protocoles créés avec ont une forme générale commune tout en permettant une possibilité de création presque infinie. Le principal avantage est qu'il est très facile pour quiconque de créer une amélioration à un protocole tout en restant parfaitement rétrocompatible avec le précédent. Ainsi, un programme pourra naturellement échanger avec un autre même si ce dernier ne prend pas en charge certaines fonctionnalités.&lt;/span&gt;&lt;/div&gt;&lt;div style=&quot;text-align: justify&quot;&gt;&lt;span&gt;&lt;br&gt;&lt;/span&gt;&lt;/div&gt;&lt;div style=&quot;text-align: justify&quot;&gt;&lt;span&gt;SUPS contient :&lt;/span&gt;&lt;/div&gt;&lt;div style=&quot;text-align: justify&quot;&gt;&lt;ul&gt;&lt;li&gt;&lt;span&gt;Un format de stockage&amp;nbsp;des données. Celui-ci, inspiré du Json, permet d'échanger n'importe quel type de donnée sous presque n'importe quel structure de base.&lt;/span&gt;&lt;/li&gt;&lt;li&gt;&lt;span&gt;Un format de description de protocole. Ce format sert à définir un protocole ou à en améliorer d'autres. L'intégralité de la description est ensuite hashée, et c'est ce hash qui permet d'identifier de manière unique est sûre un protocole.&lt;/span&gt;&lt;/li&gt;&lt;li&gt;Le protocole d'échange (réseau) en lui-même. Il fonctionne sous la forme de requête -&amp;gt; réponse, mais peut aussi bien être synchrone qu'asynchrone.&lt;/li&gt;&lt;/ul&gt;&lt;/div&gt;" style="shape=note;whiteSpace=wrap;html=1;backgroundOutline=1;darkOpacity=0.05;fillColor=#fff2cc;strokeColor=#d6b656;align=left;verticalAlign=top;fontColor=#000000;" parent="_efD95wMPsB2O2z41Fvz-1" vertex="1">
                    <mxGeometry x="90" y="85" width="540" height="305" as="geometry"/>
                </mxCell>
                <mxCell id="yLg-UuwUKUpA1XqLInHx-11" value="Request" style="swimlane;fontStyle=0;childLayout=stackLayout;horizontal=1;startSize=26;fillColor=#fff2cc;horizontalStack=0;resizeParent=1;resizeParentMax=0;resizeLast=0;collapsible=1;marginBottom=0;strokeColor=#d6b656;fontColor=#000000;" parent="_efD95wMPsB2O2z41Fvz-1" vertex="1">
                    <mxGeometry x="500" y="440" width="190" height="130" as="geometry">
                        <mxRectangle x="500" y="100" width="80" height="26" as="alternateBounds"/>
                    </mxGeometry>
                </mxCell>
                <mxCell id="yLg-UuwUKUpA1XqLInHx-12" value="+ protocol_version: int" style="text;strokeColor=#d6b656;fillColor=#fff2cc;align=left;verticalAlign=top;spacingLeft=4;spacingRight=4;overflow=hidden;rotatable=0;points=[[0,0.5],[1,0.5]];portConstraint=eastwest;fontColor=#000000;" parent="yLg-UuwUKUpA1XqLInHx-11" vertex="1">
                    <mxGeometry y="26" width="190" height="26" as="geometry"/>
                </mxCell>
                <mxCell id="yLg-UuwUKUpA1XqLInHx-13" value="+ type: Type (hash)" style="text;strokeColor=#d6b656;fillColor=#fff2cc;align=left;verticalAlign=top;spacingLeft=4;spacingRight=4;overflow=hidden;rotatable=0;points=[[0,0.5],[1,0.5]];portConstraint=eastwest;fontColor=#000000;" parent="yLg-UuwUKUpA1XqLInHx-11" vertex="1">
                    <mxGeometry y="52" width="190" height="26" as="geometry"/>
                </mxCell>
                <mxCell id="yLg-UuwUKUpA1XqLInHx-14" value="+ supported_types: Type[] (hash)" style="text;strokeColor=#d6b656;fillColor=#fff2cc;align=left;verticalAlign=top;spacingLeft=4;spacingRight=4;overflow=hidden;rotatable=0;points=[[0,0.5],[1,0.5]];portConstraint=eastwest;fontColor=#000000;" parent="yLg-UuwUKUpA1XqLInHx-11" vertex="1">
                    <mxGeometry y="78" width="190" height="26" as="geometry"/>
                </mxCell>
                <mxCell id="yLg-UuwUKUpA1XqLInHx-15" value="+ data: Object" style="text;strokeColor=#d6b656;fillColor=#fff2cc;align=left;verticalAlign=top;spacingLeft=4;spacingRight=4;overflow=hidden;rotatable=0;points=[[0,0.5],[1,0.5]];portConstraint=eastwest;fontColor=#000000;" parent="yLg-UuwUKUpA1XqLInHx-11" vertex="1">
                    <mxGeometry y="104" width="190" height="26" as="geometry"/>
                </mxCell>
                <mxCell id="yLg-UuwUKUpA1XqLInHx-5" value="Response" style="swimlane;fontStyle=0;childLayout=stackLayout;horizontal=1;startSize=26;fillColor=#fff2cc;horizontalStack=0;resizeParent=1;resizeParentMax=0;resizeLast=0;collapsible=1;marginBottom=0;strokeColor=#d6b656;fontColor=#000000;" parent="_efD95wMPsB2O2z41Fvz-1" vertex="1">
                    <mxGeometry x="500" y="740" width="190" height="104" as="geometry">
                        <mxRectangle x="500" y="100" width="80" height="26" as="alternateBounds"/>
                    </mxGeometry>
                </mxCell>
                <mxCell id="yLg-UuwUKUpA1XqLInHx-10" value="+ protocol_version: int" style="text;strokeColor=#d6b656;fillColor=#fff2cc;align=left;verticalAlign=top;spacingLeft=4;spacingRight=4;overflow=hidden;rotatable=0;points=[[0,0.5],[1,0.5]];portConstraint=eastwest;fontColor=#000000;" parent="yLg-UuwUKUpA1XqLInHx-5" vertex="1">
                    <mxGeometry y="26" width="190" height="26" as="geometry"/>
                </mxCell>
                <mxCell id="yLg-UuwUKUpA1XqLInHx-6" value="+ type: Type (hash)" style="text;strokeColor=#d6b656;fillColor=#fff2cc;align=left;verticalAlign=top;spacingLeft=4;spacingRight=4;overflow=hidden;rotatable=0;points=[[0,0.5],[1,0.5]];portConstraint=eastwest;fontColor=#000000;" parent="yLg-UuwUKUpA1XqLInHx-5" vertex="1">
                    <mxGeometry y="52" width="190" height="26" as="geometry"/>
                </mxCell>
                <mxCell id="yLg-UuwUKUpA1XqLInHx-7" value="+ data: Object" style="text;strokeColor=#d6b656;fillColor=#fff2cc;align=left;verticalAlign=top;spacingLeft=4;spacingRight=4;overflow=hidden;rotatable=0;points=[[0,0.5],[1,0.5]];portConstraint=eastwest;fontColor=#000000;" parent="yLg-UuwUKUpA1XqLInHx-5" vertex="1">
                    <mxGeometry y="78" width="190" height="26" as="geometry"/>
                </mxCell>
                <mxCell id="za_VwhdQCAinfho1YyvL-0" value="Type" style="swimlane;fontStyle=0;childLayout=stackLayout;horizontal=1;startSize=26;fillColor=#fff2cc;horizontalStack=0;resizeParent=1;resizeParentMax=0;resizeLast=0;collapsible=1;marginBottom=0;strokeColor=#d6b656;fontColor=#000000;" parent="_efD95wMPsB2O2z41Fvz-1" vertex="1">
                    <mxGeometry x="909" y="290" width="190" height="104" as="geometry">
                        <mxRectangle x="1230" y="160" width="80" height="26" as="alternateBounds"/>
                    </mxGeometry>
                </mxCell>
                <mxCell id="za_VwhdQCAinfho1YyvL-1" value="+ name: string" style="text;strokeColor=#d6b656;fillColor=#fff2cc;align=left;verticalAlign=top;spacingLeft=4;spacingRight=4;overflow=hidden;rotatable=0;points=[[0,0.5],[1,0.5]];portConstraint=eastwest;fontColor=#000000;" parent="za_VwhdQCAinfho1YyvL-0" vertex="1">
                    <mxGeometry y="26" width="190" height="26" as="geometry"/>
                </mxCell>
                <mxCell id="za_VwhdQCAinfho1YyvL-4" value="+ request: Class" style="text;strokeColor=#d6b656;fillColor=#fff2cc;align=left;verticalAlign=top;spacingLeft=4;spacingRight=4;overflow=hidden;rotatable=0;points=[[0,0.5],[1,0.5]];portConstraint=eastwest;fontColor=#000000;" parent="za_VwhdQCAinfho1YyvL-0" vertex="1">
                    <mxGeometry y="52" width="190" height="26" as="geometry"/>
                </mxCell>
                <mxCell id="VXg2yXQJoMeMFizWfAnR-0" value="+ response: Class" style="text;strokeColor=#d6b656;fillColor=#fff2cc;align=left;verticalAlign=top;spacingLeft=4;spacingRight=4;overflow=hidden;rotatable=0;points=[[0,0.5],[1,0.5]];portConstraint=eastwest;fontColor=#000000;" parent="za_VwhdQCAinfho1YyvL-0" vertex="1">
                    <mxGeometry y="78" width="190" height="26" as="geometry"/>
                </mxCell>
            </root>
        </mxGraphModel>
    </diagram>
</mxfile>